solid inlet 
facet normal -1.000000 0.000000 0.000000
outer loop
vertex -0.165000 0.010200 0.002030
vertex -0.165000 0.010400 0.000001
vertex -0.165000 0.010200 -0.002028
endloop
endfacet
facet normal -1.000000 0.000000 0.000018
outer loop
vertex -0.165000 0.010200 -0.002028
vertex -0.165000 0.009608 -0.003979
vertex -0.165000 0.008647 -0.005777
endloop
endfacet
facet normal -1.000000 0.000000 0.000029
outer loop
vertex -0.165000 0.008647 -0.005777
vertex -0.165000 0.007354 -0.007353
vertex -0.165000 0.005778 -0.008647
endloop
endfacet
facet normal -1.000000 0.000036 0.000000
outer loop
vertex -0.165000 0.005778 -0.008647
vertex -0.165000 0.003980 -0.009608
vertex -0.165000 0.002029 -0.010200
endloop
endfacet
facet normal -1.000000 0.000000 0.000075
outer loop
vertex -0.165000 0.002029 -0.010200
vertex -0.165000 0.000000 -0.010399
vertex -0.165000 -0.002029 -0.010200
endloop
endfacet
facet normal -1.000000 -0.000036 0.000000
outer loop
vertex -0.165000 -0.002029 -0.010200
vertex -0.165000 -0.003980 -0.009608
vertex -0.165000 -0.005778 -0.008647
endloop
endfacet
facet normal -1.000000 0.000000 0.000029
outer loop
vertex -0.165000 -0.005778 -0.008647
vertex -0.165000 -0.007354 -0.007353
vertex -0.165000 -0.008647 -0.005777
endloop
endfacet
facet normal -1.000000 0.000000 0.000018
outer loop
vertex -0.165000 -0.008647 -0.005777
vertex -0.165000 -0.009608 -0.003979
vertex -0.165000 -0.010200 -0.002028
endloop
endfacet
facet normal -1.000000 0.000000 0.000000
outer loop
vertex -0.165000 -0.010200 -0.002028
vertex -0.165000 -0.010400 0.000001
vertex -0.165000 -0.010200 0.002030
endloop
endfacet
facet normal -1.000000 0.000000 0.000018
outer loop
vertex -0.165000 -0.010200 0.002030
vertex -0.165000 -0.009608 0.003981
vertex -0.165000 -0.008647 0.005779
endloop
endfacet
facet normal -1.000000 0.000000 0.000029
outer loop
vertex -0.165000 -0.008647 0.005779
vertex -0.165000 -0.007354 0.007355
vertex -0.165000 -0.005778 0.008648
endloop
endfacet
facet normal -1.000000 0.000000 0.000000
outer loop
vertex -0.165000 -0.005778 0.008648
vertex -0.165000 -0.003980 0.009609
vertex -0.165000 -0.002029 0.010201
endloop
endfacet
facet normal -1.000000 0.000000 0.000075
outer loop
vertex -0.165000 -0.002029 0.010201
vertex -0.165000 0.000000 0.010401
vertex -0.165000 0.002029 0.010201
endloop
endfacet
facet normal -1.000000 0.000000 0.000000
outer loop
vertex -0.165000 0.002029 0.010201
vertex -0.165000 0.003980 0.009609
vertex -0.165000 0.005778 0.008648
endloop
endfacet
facet normal -1.000000 0.000000 0.000029
outer loop
vertex -0.165000 0.005778 0.008648
vertex -0.165000 0.007354 0.007355
vertex -0.165000 0.008647 0.005779
endloop
endfacet
facet normal -1.000000 0.000000 0.000018
outer loop
vertex -0.165000 0.008647 0.005779
vertex -0.165000 0.009608 0.003981
vertex -0.165000 0.010200 0.002030
endloop
endfacet
facet normal -1.000000 0.000000 0.000000
outer loop
vertex -0.165000 0.010200 0.002030
vertex -0.165000 0.010200 -0.002028
vertex -0.165000 0.008647 -0.005777
endloop
endfacet
facet normal -1.000000 -0.000009 0.000009
outer loop
vertex -0.165000 0.008647 -0.005777
vertex -0.165000 0.005778 -0.008647
vertex -0.165000 0.002029 -0.010200
endloop
endfacet
facet normal -1.000000 0.000000 0.000000
outer loop
vertex -0.165000 0.002029 -0.010200
vertex -0.165000 -0.002029 -0.010200
vertex -0.165000 -0.005778 -0.008647
endloop
endfacet
facet normal -1.000000 0.000018 0.000003
outer loop
vertex -0.165000 -0.005778 -0.008647
vertex -0.165000 -0.008647 -0.005777
vertex -0.165000 -0.010200 -0.002028
endloop
endfacet
facet normal -1.000000 -0.000018 0.000000
outer loop
vertex -0.165000 -0.010200 -0.002028
vertex -0.165000 -0.010200 0.002030
vertex -0.165000 -0.008647 0.005779
endloop
endfacet
facet normal -1.000000 -0.000009 0.000009
outer loop
vertex -0.165000 -0.008647 0.005779
vertex -0.165000 -0.005778 0.008648
vertex -0.165000 -0.002029 0.010201
endloop
endfacet
facet normal -1.000000 0.000000 0.000000
outer loop
vertex -0.165000 -0.002029 0.010201
vertex -0.165000 0.002029 0.010201
vertex -0.165000 0.005778 0.008648
endloop
endfacet
facet normal -1.000000 0.000000 0.000003
outer loop
vertex -0.165000 0.005778 0.008648
vertex -0.165000 0.008647 0.005779
vertex -0.165000 0.010200 0.002030
endloop
endfacet
facet normal -1.000000 0.000000 0.000002
outer loop
vertex -0.165000 0.010200 0.002030
vertex -0.165000 0.008647 -0.005777
vertex -0.165000 0.002029 -0.010200
endloop
endfacet
facet normal -1.000000 0.000000 0.000005
outer loop
vertex -0.165000 0.002029 -0.010200
vertex -0.165000 -0.005778 -0.008647
vertex -0.165000 -0.010200 -0.002028
endloop
endfacet
facet normal -1.000000 -0.000003 0.000002
outer loop
vertex -0.165000 -0.010200 -0.002028
vertex -0.165000 -0.008647 0.005779
vertex -0.165000 -0.002029 0.010201
endloop
endfacet
facet normal -1.000000 0.000000 0.000005
outer loop
vertex -0.165000 -0.002029 0.010201
vertex -0.165000 0.005778 0.008648
vertex -0.165000 0.010200 0.002030
endloop
endfacet
facet normal -1.000000 -0.000001 0.000003
outer loop
vertex -0.165000 0.010200 0.002030
vertex -0.165000 0.002029 -0.010200
vertex -0.165000 -0.010200 -0.002028
endloop
endfacet
facet normal -1.000000 0.000001 0.000003
outer loop
vertex -0.165000 -0.010200 -0.002028
vertex -0.165000 -0.002029 0.010201
vertex -0.165000 0.010200 0.002030
endloop
endfacet
endsolid inlet
