solid outlet
facet normal 1.000000 -0.000144 0.000004
outer loop
vertex 0.165000 0.009608 -0.003981
vertex 0.165000 0.010200 -0.002030
vertex 0.165000 0.010400 -0.000001
endloop
endfacet
facet normal 1.000000 0.000144 0.000004
outer loop
vertex 0.165000 0.010400 -0.000001
vertex 0.165000 0.010200 0.002028
vertex 0.165000 0.009608 0.003979
endloop
endfacet
facet normal 1.000000 0.000000 0.000018
outer loop
vertex 0.165000 0.009608 0.003979
vertex 0.165000 0.008647 0.005777
vertex 0.165000 0.007354 0.007353
endloop
endfacet
facet normal 1.000000 0.000036 0.000000
outer loop
vertex 0.165000 0.007354 0.007353
vertex 0.165000 0.005778 0.008647
vertex 0.165000 0.003980 0.009608
endloop
endfacet
facet normal 1.000000 0.000027 0.000036
outer loop
vertex 0.165000 0.003980 0.009608
vertex 0.165000 0.002029 0.010200
vertex 0.165000 0.000000 0.010399
endloop
endfacet
facet normal 1.000000 -0.000036 0.000036
outer loop
vertex 0.165000 0.000000 0.010399
vertex 0.165000 -0.002029 0.010200
vertex 0.165000 -0.003980 0.009608
endloop
endfacet
facet normal 1.000000 -0.000036 0.000000
outer loop
vertex 0.165000 -0.003980 0.009608
vertex 0.165000 -0.005778 0.008647
vertex 0.165000 -0.007354 0.007353
endloop
endfacet
facet normal 1.000000 0.000000 0.000018
outer loop
vertex 0.165000 -0.007354 0.007353
vertex 0.165000 -0.008647 0.005777
vertex 0.165000 -0.009608 0.003979
endloop
endfacet
facet normal 1.000000 -0.000144 0.000004
outer loop
vertex 0.165000 -0.009608 0.003979
vertex 0.165000 -0.010200 0.002028
vertex 0.165000 -0.010400 -0.000001
endloop
endfacet
facet normal 1.000000 0.000144 0.000004
outer loop
vertex 0.165000 -0.010400 -0.000001
vertex 0.165000 -0.010200 -0.002030
vertex 0.165000 -0.009608 -0.003981
endloop
endfacet
facet normal 1.000000 0.000072 0.000018
outer loop
vertex 0.165000 -0.009608 -0.003981
vertex 0.165000 -0.008647 -0.005779
vertex 0.165000 -0.007354 -0.007355
endloop
endfacet
facet normal 1.000000 0.000000 0.000000
outer loop
vertex 0.165000 -0.007354 -0.007355
vertex 0.165000 -0.005778 -0.008648
vertex 0.165000 -0.003980 -0.009609
endloop
endfacet
facet normal 1.000000 0.000036 0.000036
outer loop
vertex 0.165000 -0.003980 -0.009609
vertex 0.165000 -0.002029 -0.010201
vertex 0.165000 0.000000 -0.010401
endloop
endfacet
facet normal 1.000000 -0.000036 0.000036
outer loop
vertex 0.165000 0.000000 -0.010401
vertex 0.165000 0.002029 -0.010201
vertex 0.165000 0.003980 -0.009609
endloop
endfacet
facet normal 1.000000 0.000000 0.000000
outer loop
vertex 0.165000 0.003980 -0.009609
vertex 0.165000 0.005778 -0.008648
vertex 0.165000 0.007354 -0.007355
endloop
endfacet
facet normal 1.000000 -0.000072 0.000018
outer loop
vertex 0.165000 0.007354 -0.007355
vertex 0.165000 0.008647 -0.005779
vertex 0.165000 0.009608 -0.003981
endloop
endfacet
facet normal 1.000000 0.000000 -0.000004
outer loop
vertex 0.165000 0.009608 -0.003981
vertex 0.165000 0.010400 -0.000001
vertex 0.165000 0.009608 0.003979
endloop
endfacet
facet normal 1.000000 -0.000018 -0.000008
outer loop
vertex 0.165000 0.009608 0.003979
vertex 0.165000 0.007354 0.007353
vertex 0.165000 0.003980 0.009608
endloop
endfacet
facet normal 1.000000 0.000000 -0.000019
outer loop
vertex 0.165000 0.003980 0.009608
vertex 0.165000 0.000000 0.010399
vertex 0.165000 -0.003980 0.009608
endloop
endfacet
facet normal 1.000000 0.000018 -0.000008
outer loop
vertex 0.165000 -0.003980 0.009608
vertex 0.165000 -0.007354 0.007353
vertex 0.165000 -0.009608 0.003979
endloop
endfacet
facet normal 1.000000 0.000000 -0.000004
outer loop
vertex 0.165000 -0.009608 0.003979
vertex 0.165000 -0.010400 -0.000001
vertex 0.165000 -0.009608 -0.003981
endloop
endfacet
facet normal 1.000000 -0.000018 -0.000008
outer loop
vertex 0.165000 -0.009608 -0.003981
vertex 0.165000 -0.007354 -0.007355
vertex 0.165000 -0.003980 -0.009609
endloop
endfacet
facet normal 1.000000 0.000000 -0.000019
outer loop
vertex 0.165000 -0.003980 -0.009609
vertex 0.165000 0.000000 -0.010401
vertex 0.165000 0.003980 -0.009609
endloop
endfacet
facet normal 1.000000 0.000018 -0.000008
outer loop
vertex 0.165000 0.003980 -0.009609
vertex 0.165000 0.007354 -0.007355
vertex 0.165000 0.009608 -0.003981
endloop
endfacet
facet normal 1.000000 0.000010 -0.000004
outer loop
vertex 0.165000 0.009608 -0.003981
vertex 0.165000 0.009608 0.003979
vertex 0.165000 0.003980 0.009608
endloop
endfacet
facet normal 1.000000 0.000000 -0.000003
outer loop
vertex 0.165000 0.003980 0.009608
vertex 0.165000 -0.003980 0.009608
vertex 0.165000 -0.009608 0.003979
endloop
endfacet
facet normal 1.000000 0.000008 -0.000004
outer loop
vertex 0.165000 -0.009608 0.003979
vertex 0.165000 -0.009608 -0.003981
vertex 0.165000 -0.003980 -0.009609
endloop
endfacet
facet normal 1.000000 0.000000 -0.000003
outer loop
vertex 0.165000 -0.003980 -0.009609
vertex 0.165000 0.003980 -0.009609
vertex 0.165000 0.009608 -0.003981
endloop
endfacet
facet normal 1.000000 -0.000002 -0.000003
outer loop
vertex 0.165000 0.009608 -0.003981
vertex 0.165000 0.003980 0.009608
vertex 0.165000 -0.009608 0.003979
endloop
endfacet
facet normal 1.000000 -0.000002 -0.000003
outer loop
vertex 0.165000 -0.009608 0.003979
vertex 0.165000 -0.003980 -0.009609
vertex 0.165000 0.009608 -0.003981
endloop
endfacet
endsolid outlet
