solid pipe
facet normal -0.000000 0.995185 -0.098017
outer loop
vertex -0.165000 0.010400 0.000001
vertex 0.165000 0.010400 -0.000001
vertex 0.165000 0.010200 -0.002030
endloop
endfacet
facet normal -0.000000 0.995185 -0.098017
outer loop
vertex -0.165000 0.010400 0.000001
vertex 0.165000 0.010200 -0.002030
vertex -0.165000 0.010200 -0.002028
endloop
endfacet
facet normal -0.000001 0.956940 -0.290285
outer loop
vertex -0.165000 0.010200 -0.002028
vertex 0.165000 0.010200 -0.002030
vertex 0.165000 0.009608 -0.003981
endloop
endfacet
facet normal -0.000001 0.956940 -0.290285
outer loop
vertex -0.165000 0.010200 -0.002028
vertex 0.165000 0.009608 -0.003981
vertex -0.165000 0.009608 -0.003979
endloop
endfacet
facet normal -0.000002 0.881921 -0.471397
outer loop
vertex -0.165000 0.009608 -0.003979
vertex 0.165000 0.009608 -0.003981
vertex 0.165000 0.008647 -0.005779
endloop
endfacet
facet normal -0.000002 0.881921 -0.471397
outer loop
vertex -0.165000 0.009608 -0.003979
vertex 0.165000 0.008647 -0.005779
vertex -0.165000 0.008647 -0.005777
endloop
endfacet
facet normal -0.000002 0.773011 -0.634393
outer loop
vertex -0.165000 0.008647 -0.005777
vertex 0.165000 0.008647 -0.005779
vertex 0.165000 0.007354 -0.007355
endloop
endfacet
facet normal -0.000002 0.773010 -0.634394
outer loop
vertex -0.165000 0.008647 -0.005777
vertex 0.165000 0.007354 -0.007355
vertex -0.165000 0.007354 -0.007353
endloop
endfacet
facet normal -0.000003 0.634393 -0.773011
outer loop
vertex -0.165000 0.007354 -0.007353
vertex 0.165000 0.007354 -0.007355
vertex 0.165000 0.005778 -0.008648
endloop
endfacet
facet normal -0.000003 0.634394 -0.773010
outer loop
vertex -0.165000 0.007354 -0.007353
vertex 0.165000 0.005778 -0.008648
vertex -0.165000 0.005778 -0.008647
endloop
endfacet
facet normal -0.000003 0.471397 -0.881921
outer loop
vertex -0.165000 0.005778 -0.008647
vertex 0.165000 0.005778 -0.008648
vertex 0.165000 0.003980 -0.009609
endloop
endfacet
facet normal -0.000003 0.471397 -0.881921
outer loop
vertex -0.165000 0.005778 -0.008647
vertex 0.165000 0.003980 -0.009609
vertex -0.165000 0.003980 -0.009608
endloop
endfacet
facet normal -0.000003 0.290285 -0.956940
outer loop
vertex -0.165000 0.003980 -0.009608
vertex 0.165000 0.003980 -0.009609
vertex 0.165000 0.002029 -0.010201
endloop
endfacet
facet normal -0.000003 0.290285 -0.956940
outer loop
vertex -0.165000 0.003980 -0.009608
vertex 0.165000 0.002029 -0.010201
vertex -0.165000 0.002029 -0.010200
endloop
endfacet
facet normal -0.000004 0.098017 -0.995185
outer loop
vertex -0.165000 0.002029 -0.010200
vertex 0.165000 0.002029 -0.010201
vertex 0.165000 0.000000 -0.010401
endloop
endfacet
facet normal -0.000004 0.098017 -0.995185
outer loop
vertex -0.165000 0.002029 -0.010200
vertex 0.165000 0.000000 -0.010401
vertex -0.165000 0.000000 -0.010399
endloop
endfacet
facet normal -0.000004 -0.098017 -0.995185
outer loop
vertex -0.165000 0.000000 -0.010399
vertex 0.165000 0.000000 -0.010401
vertex 0.165000 -0.002029 -0.010201
endloop
endfacet
facet normal -0.000004 -0.098017 -0.995185
outer loop
vertex -0.165000 0.000000 -0.010399
vertex 0.165000 -0.002029 -0.010201
vertex -0.165000 -0.002029 -0.010200
endloop
endfacet
facet normal -0.000003 -0.290285 -0.956940
outer loop
vertex -0.165000 -0.002029 -0.010200
vertex 0.165000 -0.002029 -0.010201
vertex 0.165000 -0.003980 -0.009609
endloop
endfacet
facet normal -0.000003 -0.290285 -0.956940
outer loop
vertex -0.165000 -0.002029 -0.010200
vertex 0.165000 -0.003980 -0.009609
vertex -0.165000 -0.003980 -0.009608
endloop
endfacet
facet normal -0.000003 -0.471397 -0.881921
outer loop
vertex -0.165000 -0.003980 -0.009608
vertex 0.165000 -0.003980 -0.009609
vertex 0.165000 -0.005778 -0.008648
endloop
endfacet
facet normal -0.000003 -0.471397 -0.881921
outer loop
vertex -0.165000 -0.003980 -0.009608
vertex 0.165000 -0.005778 -0.008648
vertex -0.165000 -0.005778 -0.008647
endloop
endfacet
facet normal -0.000003 -0.634393 -0.773010
outer loop
vertex -0.165000 -0.005778 -0.008647
vertex 0.165000 -0.005778 -0.008648
vertex 0.165000 -0.007354 -0.007355
endloop
endfacet
facet normal -0.000003 -0.634393 -0.773011
outer loop
vertex -0.165000 -0.005778 -0.008647
vertex 0.165000 -0.007354 -0.007355
vertex -0.165000 -0.007354 -0.007353
endloop
endfacet
facet normal -0.000002 -0.773010 -0.634394
outer loop
vertex -0.165000 -0.007354 -0.007353
vertex 0.165000 -0.007354 -0.007355
vertex 0.165000 -0.008647 -0.005779
endloop
endfacet
facet normal -0.000002 -0.773011 -0.634393
outer loop
vertex -0.165000 -0.007354 -0.007353
vertex 0.165000 -0.008647 -0.005779
vertex -0.165000 -0.008647 -0.005777
endloop
endfacet
facet normal -0.000002 -0.881921 -0.471397
outer loop
vertex -0.165000 -0.008647 -0.005777
vertex 0.165000 -0.008647 -0.005779
vertex 0.165000 -0.009608 -0.003981
endloop
endfacet
facet normal -0.000002 -0.881921 -0.471397
outer loop
vertex -0.165000 -0.008647 -0.005777
vertex 0.165000 -0.009608 -0.003981
vertex -0.165000 -0.009608 -0.003979
endloop
endfacet
facet normal -0.000001 -0.956940 -0.290286
outer loop
vertex -0.165000 -0.009608 -0.003979
vertex 0.165000 -0.009608 -0.003981
vertex 0.165000 -0.010200 -0.002030
endloop
endfacet
facet normal -0.000001 -0.956940 -0.290284
outer loop
vertex -0.165000 -0.009608 -0.003979
vertex 0.165000 -0.010200 -0.002030
vertex -0.165000 -0.010200 -0.002028
endloop
endfacet
facet normal -0.000000 -0.995185 -0.098017
outer loop
vertex -0.165000 -0.010200 -0.002028
vertex 0.165000 -0.010200 -0.002030
vertex 0.165000 -0.010400 -0.000001
endloop
endfacet
facet normal -0.000000 -0.995185 -0.098017
outer loop
vertex -0.165000 -0.010200 -0.002028
vertex 0.165000 -0.010400 -0.000001
vertex -0.165000 -0.010400 0.000001
endloop
endfacet
facet normal 0.000000 -0.995185 0.098017
outer loop
vertex -0.165000 -0.010400 0.000001
vertex 0.165000 -0.010400 -0.000001
vertex 0.165000 -0.010200 0.002028
endloop
endfacet
facet normal 0.000000 -0.995185 0.098017
outer loop
vertex -0.165000 -0.010400 0.000001
vertex 0.165000 -0.010200 0.002028
vertex -0.165000 -0.010200 0.002030
endloop
endfacet
facet normal 0.000001 -0.956941 0.290284
outer loop
vertex -0.165000 -0.010200 0.002030
vertex 0.165000 -0.010200 0.002028
vertex 0.165000 -0.009608 0.003979
endloop
endfacet
facet normal 0.000001 -0.956940 0.290285
outer loop
vertex -0.165000 -0.010200 0.002030
vertex 0.165000 -0.009608 0.003979
vertex -0.165000 -0.009608 0.003981
endloop
endfacet
facet normal 0.000002 -0.881921 0.471397
outer loop
vertex -0.165000 -0.009608 0.003981
vertex 0.165000 -0.009608 0.003979
vertex 0.165000 -0.008647 0.005777
endloop
endfacet
facet normal 0.000002 -0.881921 0.471397
outer loop
vertex -0.165000 -0.009608 0.003981
vertex 0.165000 -0.008647 0.005777
vertex -0.165000 -0.008647 0.005779
endloop
endfacet
facet normal 0.000002 -0.773011 0.634393
outer loop
vertex -0.165000 -0.008647 0.005779
vertex 0.165000 -0.008647 0.005777
vertex 0.165000 -0.007354 0.007353
endloop
endfacet
facet normal 0.000002 -0.773010 0.634394
outer loop
vertex -0.165000 -0.008647 0.005779
vertex 0.165000 -0.007354 0.007353
vertex -0.165000 -0.007354 0.007355
endloop
endfacet
facet normal 0.000003 -0.634393 0.773011
outer loop
vertex -0.165000 -0.007354 0.007355
vertex 0.165000 -0.007354 0.007353
vertex 0.165000 -0.005778 0.008647
endloop
endfacet
facet normal 0.000003 -0.634393 0.773010
outer loop
vertex -0.165000 -0.007354 0.007355
vertex 0.165000 -0.005778 0.008647
vertex -0.165000 -0.005778 0.008648
endloop
endfacet
facet normal 0.000003 -0.471397 0.881921
outer loop
vertex -0.165000 -0.005778 0.008648
vertex 0.165000 -0.005778 0.008647
vertex 0.165000 -0.003980 0.009608
endloop
endfacet
facet normal 0.000003 -0.471397 0.881921
outer loop
vertex -0.165000 -0.005778 0.008648
vertex 0.165000 -0.003980 0.009608
vertex -0.165000 -0.003980 0.009609
endloop
endfacet
facet normal 0.000003 -0.290285 0.956940
outer loop
vertex -0.165000 -0.003980 0.009609
vertex 0.165000 -0.003980 0.009608
vertex 0.165000 -0.002029 0.010200
endloop
endfacet
facet normal 0.000003 -0.290285 0.956940
outer loop
vertex -0.165000 -0.003980 0.009609
vertex 0.165000 -0.002029 0.010200
vertex -0.165000 -0.002029 0.010201
endloop
endfacet
facet normal 0.000004 -0.098017 0.995185
outer loop
vertex -0.165000 -0.002029 0.010201
vertex 0.165000 -0.002029 0.010200
vertex 0.165000 0.000000 0.010399
endloop
endfacet
facet normal 0.000004 -0.098017 0.995185
outer loop
vertex -0.165000 -0.002029 0.010201
vertex 0.165000 0.000000 0.010399
vertex -0.165000 0.000000 0.010401
endloop
endfacet
facet normal 0.000004 0.098017 0.995185
outer loop
vertex -0.165000 0.000000 0.010401
vertex 0.165000 0.000000 0.010399
vertex 0.165000 0.002029 0.010200
endloop
endfacet
facet normal 0.000004 0.098017 0.995185
outer loop
vertex -0.165000 0.000000 0.010401
vertex 0.165000 0.002029 0.010200
vertex -0.165000 0.002029 0.010201
endloop
endfacet
facet normal 0.000003 0.290285 0.956940
outer loop
vertex -0.165000 0.002029 0.010201
vertex 0.165000 0.002029 0.010200
vertex 0.165000 0.003980 0.009608
endloop
endfacet
facet normal 0.000003 0.290285 0.956940
outer loop
vertex -0.165000 0.002029 0.010201
vertex 0.165000 0.003980 0.009608
vertex -0.165000 0.003980 0.009609
endloop
endfacet
facet normal 0.000003 0.471397 0.881921
outer loop
vertex -0.165000 0.003980 0.009609
vertex 0.165000 0.003980 0.009608
vertex 0.165000 0.005778 0.008647
endloop
endfacet
facet normal 0.000003 0.471397 0.881921
outer loop
vertex -0.165000 0.003980 0.009609
vertex 0.165000 0.005778 0.008647
vertex -0.165000 0.005778 0.008648
endloop
endfacet
facet normal 0.000003 0.634394 0.773010
outer loop
vertex -0.165000 0.005778 0.008648
vertex 0.165000 0.005778 0.008647
vertex 0.165000 0.007354 0.007353
endloop
endfacet
facet normal 0.000003 0.634393 0.773011
outer loop
vertex -0.165000 0.005778 0.008648
vertex 0.165000 0.007354 0.007353
vertex -0.165000 0.007354 0.007355
endloop
endfacet
facet normal 0.000002 0.773010 0.634393
outer loop
vertex -0.165000 0.007354 0.007355
vertex 0.165000 0.007354 0.007353
vertex 0.165000 0.008647 0.005777
endloop
endfacet
facet normal 0.000002 0.773011 0.634393
outer loop
vertex -0.165000 0.007354 0.007355
vertex 0.165000 0.008647 0.005777
vertex -0.165000 0.008647 0.005779
endloop
endfacet
facet normal 0.000002 0.881921 0.471397
outer loop
vertex -0.165000 0.008647 0.005779
vertex 0.165000 0.008647 0.005777
vertex 0.165000 0.009608 0.003979
endloop
endfacet
facet normal 0.000002 0.881921 0.471397
outer loop
vertex -0.165000 0.008647 0.005779
vertex 0.165000 0.009608 0.003979
vertex -0.165000 0.009608 0.003981
endloop
endfacet
facet normal 0.000001 0.956940 0.290285
outer loop
vertex -0.165000 0.009608 0.003981
vertex 0.165000 0.009608 0.003979
vertex 0.165000 0.010200 0.002028
endloop
endfacet
facet normal 0.000001 0.956940 0.290285
outer loop
vertex -0.165000 0.009608 0.003981
vertex 0.165000 0.010200 0.002028
vertex -0.165000 0.010200 0.002030
endloop
endfacet
facet normal 0.000000 0.995185 0.098017
outer loop
vertex -0.165000 0.010200 0.002030
vertex 0.165000 0.010200 0.002028
vertex 0.165000 0.010400 -0.000001
endloop
endfacet
facet normal 0.000000 0.995185 0.098017
outer loop
vertex -0.165000 0.010200 0.002030
vertex 0.165000 0.010400 -0.000001
vertex -0.165000 0.010400 0.000001
endloop
endfacet
endsolid pipe
